<svg width="1119" height="890" viewBox="0 0 1119 890" fill="none" xmlns="http://www.w3.org/2000/svg">
<path d="M88.0321 644.731C-7.50178 375.636 144.128 227.677 225.236 154.603C359.954 34.7473 529.814 197.934 585.644 207.534C641.474 217.135 705.199 155.015 870.119 216.665C1035.04 278.314 1155.68 509.35 1024.2 657.555C695.856 923.13 484.947 706.375 393.462 681.842C301.976 657.31 183.566 913.827 88.0321 644.731Z" fill="#E0EEFB"/>
<path opacity="0.1" d="M814.84 360.6H786.4V389.04H814.84V360.6Z" fill="#0060A9"/>
<path opacity="0.1" d="M814.84 430.75H786.4V459.19H814.84V430.75Z" fill="#0060A9"/>
<path opacity="0.1" d="M814.84 500.89H786.4V529.33H814.84V500.89Z" fill="#0060A9"/>
<path opacity="0.1" d="M814.84 571.04H786.4V599.48H814.84V571.04Z" fill="#0060A9"/>
<path opacity="0.1" d="M814.84 641.19H786.4V669.63H814.84V641.19Z" fill="#0060A9"/>
<path opacity="0.1" d="M786.4 729.67V711.33H814.83V727.06L786.4 729.67Z" fill="#0060A9"/>
<path d="M827.43 871.87C881.245 871.87 924.87 864.863 924.87 856.22C924.87 847.577 881.245 840.57 827.43 840.57C773.616 840.57 729.99 847.577 729.99 856.22C729.99 864.863 773.616 871.87 827.43 871.87Z" fill="#E0EEFB"/>
<path d="M505.44 856.22C559.255 856.22 602.88 849.213 602.88 840.57C602.88 831.927 559.255 824.92 505.44 824.92C451.625 824.92 408 831.927 408 840.57C408 849.213 451.625 856.22 505.44 856.22Z" fill="#E0EEFB"/>
<path d="M567.02 843.6C564.13 844.71 548.46 846.6 544.08 846.07C539.7 845.54 533.9 843.32 532.25 840.42C530.6 837.52 521.35 833.14 518.87 833.42C517.854 833.451 516.839 833.309 515.87 833C514.159 832.482 512.488 831.84 510.87 831.08C510.644 829.819 510.682 828.526 510.98 827.28C511.038 827.029 511.111 826.782 511.2 826.54C511.784 824.899 512.991 823.555 514.56 822.8L514.92 822.63C515.613 822.331 516.338 822.109 517.08 821.97C524.94 820.46 557.37 823.49 557.37 823.49C557.37 823.49 558.28 825.12 559.53 827.14C561.09 829.64 563.21 832.69 564.81 833.84C566.583 835.355 567.785 837.429 568.22 839.72C568.6 841.49 568.32 843.11 567.02 843.6Z" fill="#363636"/>
<path opacity="0.1" d="M567.02 843.6C564.13 844.71 548.47 846.6 544.09 846.07C539.71 845.54 533.91 843.31 532.25 840.42C530.59 837.53 521.36 833.14 518.88 833.42C516.4 833.7 510.88 831.08 510.88 831.08C510.88 831.08 510.02 827.08 512.52 824.35L517.52 827.9C517.52 827.9 530.9 832.05 533.38 835.9C535.86 839.75 540.38 841.9 546.91 842.29C551.79 842.61 563 840.71 568.25 839.76C568.6 841.49 568.33 843.11 567.02 843.6Z" fill="black"/>
<path d="M519.15 848.7C513.252 848.585 507.352 848.862 501.49 849.53C492.1 850.63 484.93 846.53 483.68 844.84C482.43 843.15 475.96 837.44 470.99 835.44C468.56 834.5 467.99 831.44 468.1 828.58C468.1 828.43 468.1 828.26 468.1 828.11C468.192 826.298 468.46 824.5 468.9 822.74L507.81 821.91L511.18 826.48L511.7 827.18L513.75 829.97C513.75 829.97 514.68 831.19 515.9 832.97C517.96 835.97 520.84 840.4 521.61 843.33C522.84 848.02 519.15 848.7 519.15 848.7Z" fill="#363636"/>
<path opacity="0.1" d="M519.15 848.7C513.252 848.585 507.352 848.862 501.49 849.53C492.11 850.63 484.93 846.53 483.69 844.84C482.45 843.15 475.96 837.39 470.99 835.46C468.56 834.52 467.99 831.46 468.1 828.6C470.88 829.25 476.72 830.91 479.01 833.8C482.01 837.66 487.38 844.15 495.01 844.56C501.17 844.89 516.17 843.79 521.67 843.35C522.85 848.02 519.15 848.7 519.15 848.7Z" fill="black"/>
<path opacity="0.1" d="M514.52 822.76C514.07 826.1 512.68 827 511.68 827.2C511.436 827.248 511.185 827.248 510.94 827.2C510.809 827.19 510.678 827.17 510.55 827.14C510.55 827.14 475.61 834.86 468.55 828.61C468.371 828.449 468.204 828.275 468.05 828.09C468.142 826.278 468.41 824.48 468.85 822.72L507.76 821.89L511.13 826.46C511.714 824.819 512.921 823.475 514.49 822.72L514.52 822.76Z" fill="black"/>
<path opacity="0.1" d="M559.52 827.1C558.74 827.96 558.09 828.45 557.68 828.28C555.84 827.54 540.76 824.97 535.97 827.18C531.18 829.39 514.97 827.54 514.97 827.54C514.97 827.54 514.97 825.62 514.88 822.54C515.574 822.24 516.298 822.019 517.04 821.88C524.9 820.37 557.33 823.4 557.33 823.4C557.33 823.4 558.28 825.08 559.52 827.1Z" fill="black"/>
<path d="M582.34 600.9L577.92 631.44L572.78 651.68L565.42 689.94V730.44C565.42 730.44 570.2 811.02 568.36 813.22C566.52 815.42 559.53 827.95 557.69 827.22C555.85 826.49 540.77 823.91 535.98 826.11C531.19 828.31 514.98 826.48 514.98 826.48C514.98 826.48 514.61 795.21 512.77 786.38C510.93 777.55 516.08 740.02 516.08 740.02L517.92 719.79C517.92 719.79 520.5 706.17 518.29 702.49C516.08 698.81 521.6 684.49 521.6 684.49C521.6 684.49 519.03 676.38 519.77 671.6C520.51 666.82 521.6 648.79 521.6 648.79C521.6 648.79 519.77 661.31 514.66 668.66C509.55 676.01 510.2 741.88 510.2 741.88L510.56 798.88C519.77 829.06 510.56 826.11 510.56 826.11C510.56 826.11 475.62 833.84 468.56 827.58C461.5 821.32 463.52 781.92 463.52 781.92C463.52 781.92 462.79 750.28 465.73 740.72C468.67 731.16 469.6 695.83 469.6 695.83C469.6 695.83 469.41 625.18 469.6 620.41C469.74 616.41 469.6 580.6 469.6 569.41C469.6 567.33 469.6 566.1 469.6 566.1L473.82 555.62L523.82 549.36H547.74C547.74 549.36 583.74 557.82 587.46 561.47C587.539 561.531 587.607 561.605 587.66 561.69C590.07 565.22 582.34 600.9 582.34 600.9Z" fill="#0060A9"/>
<path opacity="0.1" d="M521.63 761.32C521.63 761.32 532.63 787.81 537.82 789.65C543.01 791.49 521.63 761.32 521.63 761.32Z" fill="black"/>
<path opacity="0.1" d="M525.7 800.32C525.7 800.32 562.84 802.16 562.47 806.21C562.1 810.26 525.7 800.32 525.7 800.32Z" fill="black"/>
<path opacity="0.1" d="M476.01 789.73C477.48 791.12 504.34 793.73 502.13 796.27C499.92 798.81 478.22 803.75 478.22 803.75L476.01 789.73Z" fill="black"/>
<path opacity="0.1" d="M471.6 744.03C471.6 745.13 477.12 779.35 478.6 780.82C480.08 782.29 492.21 783.76 492.21 783.76L471.6 744.03Z" fill="black"/>
<path d="M511.65 276.29C506.38 282.18 504.1 290.53 497.96 295.51C494.23 298.51 489.51 299.94 485.17 301.98C480.83 304.02 476.53 307.13 475.24 311.75C473.8 316.95 476.58 322.26 478.04 327.46C479.55 332.84 479.64 338.46 479.73 344.09C479.83 350.9 479.94 357.71 479.82 364.52C479.64 375.13 478.76 386.23 473.13 395.22C493.46 401.69 515.08 402.57 536.4 403.4C540.497 403.692 544.613 403.588 548.69 403.09C552.223 402.386 555.718 401.502 559.16 400.44C565.967 398.639 572.98 397.741 580.02 397.77C583.09 397.77 586.22 397.96 589.18 397.16C592.14 396.36 594.99 394.31 595.79 391.35C596.5 388.69 595.46 385.86 594.1 383.47C591.62 379.11 588.1 375.47 585.44 371.17C582.725 366.628 581.114 361.512 580.737 356.233C580.36 350.955 581.228 345.662 583.27 340.78C585.63 335.29 589.43 330.51 591.75 325.01C594.127 319.105 594.759 312.642 593.571 306.388C592.383 300.134 589.426 294.353 585.05 289.73C576.98 281.47 565.4 278.27 554.32 276.57C549.655 276.019 545.204 274.299 541.38 271.57C537.13 268.77 531.62 268.09 526.64 268.71C520.895 269.354 515.574 272.045 511.65 276.29Z" fill="#3F3D56"/>
<g opacity="0.1">
<path d="M583.58 335.01C581.541 339.829 580.668 345.06 581.03 350.28C581.254 346.547 582.117 342.881 583.58 339.44C585.93 333.95 589.73 329.17 592.05 323.67C593.947 319.077 594.745 314.105 594.38 309.15C594.174 312.623 593.386 316.037 592.05 319.25C589.73 324.75 585.93 329.52 583.58 335.01Z" fill="black"/>
<path d="M480.03 342.73C480.09 346.65 480.15 350.58 480.16 354.5C480.16 349.1 480.11 343.71 480.03 338.32C479.95 332.73 479.85 327.07 478.34 321.68C477.34 318.26 475.86 314.79 475.34 311.34C474.45 316.24 476.98 321.21 478.34 326.1C479.85 331.44 479.95 337.14 480.03 342.73Z" fill="black"/>
<path d="M589.52 391.44C586.52 392.25 583.44 392.07 580.37 392.05C573.335 392.005 566.325 392.886 559.52 394.67C556.077 395.727 552.583 396.608 549.05 397.31C544.97 397.817 540.851 397.924 536.75 397.63C516.15 396.82 495.26 395.95 475.53 390.06C474.944 391.368 474.276 392.637 473.53 393.86C493.86 400.32 515.48 401.21 536.79 402.04C540.891 402.334 545.01 402.227 549.09 401.72C552.61 401.025 556.092 400.147 559.52 399.09C566.311 397.3 573.308 396.409 580.33 396.44C583.4 396.44 586.52 396.63 589.48 395.82C592.44 395.01 595.29 392.98 596.09 390.02C596.427 388.649 596.393 387.213 595.99 385.86C595.1 388.66 592.35 390.61 589.52 391.44Z" fill="black"/>
</g>
<path d="M559.9 379.59C559.16 381.25 556.04 395.59 555.3 397.06C554.56 398.53 550.52 422.06 550.15 423.38C549.78 424.7 523.52 417.86 523.52 417.86L507.71 404.61L491.46 388.44C491.46 388.44 490.98 373.85 502.95 369.17C503.764 368.851 504.599 368.59 505.45 368.39C519.97 364.9 518.51 320.75 518.51 320.75L548.31 333.62C548.31 333.62 542.79 359.38 542.98 364.35C543.03 366.02 544.34 367.06 546.05 367.69C548.694 368.442 551.447 368.74 554.19 368.57C554.19 368.57 560.64 377.94 559.9 379.59Z" fill="#FBBEBE"/>
<path d="M613.25 427.97L617.48 429.08C617.48 429.08 620.61 433.84 613.25 438.27C608.577 441.109 604.091 444.245 599.82 447.66L578.07 454.28L573.88 441.13L594.12 425.77L613.25 427.97Z" fill="#0060A9"/>
<path opacity="0.1" d="M613.25 427.97L617.48 429.08C617.48 429.08 620.61 433.84 613.25 438.27C608.577 441.109 604.091 444.245 599.82 447.66L578.07 454.28L573.88 441.13L594.12 425.77L613.25 427.97Z" fill="black"/>
<path d="M454.52 440.67L446.06 448.95C446.06 448.95 461.32 466.61 473.06 467.71C484.8 468.81 492.37 454.28 492.37 454.28L482.21 438.28L454.52 440.67Z" fill="#0060A9"/>
<path opacity="0.1" d="M454.52 440.67L446.06 448.95C446.06 448.95 461.32 466.61 473.06 467.71C484.8 468.81 492.37 454.28 492.37 454.28L482.21 438.28L454.52 440.67Z" fill="black"/>
<path opacity="0.1" d="M534.88 349.6C551.134 349.6 564.31 336.424 564.31 320.17C564.31 303.916 551.134 290.74 534.88 290.74C518.626 290.74 505.45 303.916 505.45 320.17C505.45 336.424 518.626 349.6 534.88 349.6Z" fill="black"/>
<path d="M534.88 347.39C551.134 347.39 564.31 334.214 564.31 317.96C564.31 301.706 551.134 288.53 534.88 288.53C518.626 288.53 505.45 301.706 505.45 317.96C505.45 334.214 518.626 347.39 534.88 347.39Z" fill="#FBBEBE"/>
<path opacity="0.1" d="M587.68 565.03C580.979 565.797 574.378 567.275 567.99 569.44C556.99 573.1 470.79 569.5 469.59 569.44C469.59 567.36 469.59 566.13 469.59 566.13L473.81 555.65L523.81 549.39H547.73C547.73 549.39 583.73 557.85 587.45 561.5C587.6 563.7 587.68 565.03 587.68 565.03Z" fill="black"/>
<path opacity="0.1" d="M559.9 379.59C559.16 381.25 556.04 395.59 555.3 397.06C554.56 398.53 550.52 422.06 550.15 423.38C549.78 424.7 523.52 417.86 523.52 417.86L507.71 404.61L491.46 388.44C491.46 388.44 490.98 373.85 502.95 369.17L532.67 403.34L546.05 367.69C548.694 368.442 551.447 368.74 554.19 368.57C554.19 368.57 560.64 377.94 559.9 379.59Z" fill="black"/>
<path d="M532.67 404.44L502.25 369.44C500.47 368.303 498.435 367.627 496.328 367.472C494.221 367.316 492.109 367.687 490.18 368.55C483.37 371.5 474.91 373.89 472.7 375.36C470.49 376.83 462.21 385.93 462.21 385.93L486.87 450.44L476.01 492.93C476.01 492.93 477.67 514.64 473.44 522.55C470.865 527.608 469.658 533.251 469.94 538.92C469.94 538.92 471.23 549.41 469.76 554.92C468.901 558.604 468.837 562.429 469.57 566.14C469.57 566.14 556.96 569.82 567.99 566.14C574.377 563.969 580.978 562.491 587.68 561.73C587.68 561.73 585.68 524.93 583.68 516.1C581.68 507.27 585.34 473.61 585.34 473.61L582.95 437.55L597.29 400.55C597.29 400.55 589.52 376.83 581.42 374.44C581.42 374.44 566.71 370.94 563.58 369.29C560.45 367.64 551.25 366.16 551.25 366.16L546.42 367.78L532.67 404.44Z" fill="#0060A9"/>
<path opacity="0.1" d="M575.112 436.332L511.1 431.98C509.48 431.87 508.078 433.094 507.968 434.714L501.095 535.78C500.985 537.4 502.209 538.803 503.829 538.913L567.841 543.265C569.461 543.376 570.864 542.152 570.974 540.532L577.846 439.465C577.956 437.845 576.732 436.443 575.112 436.332Z" fill="black"/>
<path d="M577.316 434.137L513.304 429.785C511.684 429.675 510.282 430.899 510.172 432.519L503.299 533.585C503.189 535.205 504.413 536.608 506.033 536.718L570.045 541.071C571.665 541.181 573.068 539.957 573.178 538.337L580.05 437.27C580.16 435.65 578.936 434.248 577.316 434.137Z" fill="#3F3D56"/>
<path d="M575.204 442.06L514.325 437.92L508.068 529.928L568.948 534.067L575.204 442.06Z" fill="white"/>
<path opacity="0.1" d="M569.746 465.544L520.016 462.063L519.045 475.923L568.775 479.404L569.746 465.544Z" fill="black"/>
<path opacity="0.1" d="M567.946 520.623L560.054 520.086L559.563 527.31L567.455 527.846L567.946 520.623Z" fill="black"/>
<path opacity="0.1" d="M560.162 503.19L519.765 500.443L519.274 507.666L559.671 510.413L560.162 503.19Z" fill="black"/>
<path d="M567.669 438.62L525.606 435.759L524.851 446.864L566.914 449.724L567.669 438.62Z" fill="#3F3D56"/>
<path opacity="0.1" d="M567.669 438.62L525.606 435.759L524.851 446.864L566.914 449.724L567.669 438.62Z" fill="black"/>
<path opacity="0.1" d="M536.35 563C536.35 563 535.98 617.46 521.63 648.73C521.63 648.73 538.93 607.52 538.93 605.87C538.93 604.22 548.49 586.92 545.93 581.77C543.37 576.62 536.35 563 536.35 563Z" fill="black"/>
<path opacity="0.1" d="M537.13 310.6C536.58 305.78 537.76 300.921 540.46 296.89C540.139 300.93 541.282 304.951 543.679 308.219C546.077 311.487 549.57 313.784 553.52 314.69C553.183 314.397 552.942 314.01 552.83 313.578C552.717 313.146 552.738 312.69 552.89 312.27C554.94 314.59 556.51 317.34 558.83 319.38C561.15 321.42 564.63 322.64 567.36 321.19C571.07 319.19 571.11 313.92 570.15 309.82C568.09 301.089 563.863 293.017 557.86 286.35C556.362 284.335 554.418 282.694 552.18 281.556C549.942 280.418 547.471 279.813 544.96 279.79C539.28 279.35 533.38 279.85 528.29 282.4C525.426 283.963 522.743 285.838 520.29 287.99L506.29 299.41C504.943 300.38 503.79 301.595 502.89 302.99C502.289 304.156 501.929 305.432 501.83 306.74C501.472 310.48 502.164 314.246 503.828 317.614C505.492 320.983 508.062 323.821 511.25 325.81C511.183 322.854 511.996 319.945 513.586 317.452C515.176 314.959 517.471 312.995 520.18 311.81C520.604 312.165 520.948 312.606 521.188 313.105C521.427 313.603 521.558 314.147 521.57 314.7L524.52 309.44C524.959 308.483 525.65 307.663 526.52 307.07C528.34 306.07 530.61 307.25 532.16 308.66C533.71 310.07 535.22 311.83 537.3 312.05L537.38 304.22" fill="black"/>
<path d="M537.13 309.5C536.579 304.677 537.759 299.814 540.46 295.78C539.56 303.78 545.59 312.04 553.53 313.58C553.193 313.29 552.952 312.904 552.839 312.473C552.727 312.043 552.748 311.588 552.9 311.17C554.95 313.49 556.52 316.23 558.84 318.28C561.16 320.33 564.64 321.54 567.37 320.08C571.08 318.08 571.12 312.81 570.16 308.72C568.1 299.988 563.873 291.917 557.87 285.25C556.008 282.979 553.66 281.155 551 279.91C549.075 279.198 547.051 278.786 545 278.69C539.32 278.25 533.42 278.74 528.33 281.29C525.468 282.86 522.785 284.738 520.33 286.89L506.33 298.31C504.981 299.278 503.827 300.493 502.93 301.89C502.328 303.056 501.968 304.331 501.87 305.64C501.513 309.379 502.206 313.143 503.87 316.51C505.534 319.876 508.103 322.713 511.29 324.7C511.225 321.745 512.04 318.836 513.629 316.344C515.219 313.852 517.513 311.887 520.22 310.7C520.643 311.056 520.986 311.498 521.225 311.996C521.465 312.494 521.596 313.037 521.61 313.59L524.55 308.35C524.986 307.391 525.678 306.571 526.55 305.98C528.37 304.98 530.64 306.16 532.19 307.57C533.74 308.98 535.25 310.73 537.33 310.96L537.41 303.12" fill="#3F3D56"/>
<path d="M551.07 495.13C548.5 493.83 506 500.46 506 500.46C506 500.46 499 498.46 482.08 495.68C465.16 492.9 464.08 476.36 464.08 476.36L462.23 443.25L467.94 438.25L492.4 454.25C492.4 454.25 492.78 462.34 492.4 463.8C492.16 464.8 491.52 465.99 491.58 466.8C491.599 467.019 491.689 467.226 491.837 467.389C491.985 467.552 492.183 467.661 492.4 467.7C494.06 468.12 516.68 471.78 516.68 471.78C516.68 471.78 569.11 468.19 582.18 485.85C583.216 487.146 583.999 488.625 584.49 490.21C587.73 502.28 553.4 496.28 551.07 495.13Z" fill="#FBBEBE"/>
<path opacity="0.1" d="M584.52 490.28C582.52 491.17 581.28 491.81 581.28 491.81C581.28 491.81 562.52 491.26 551.98 487.44C541.44 483.62 528.63 484.3 528.63 484.3C528.63 484.3 484.71 476.74 491.52 466.87C491.539 467.089 491.629 467.296 491.777 467.459C491.926 467.622 492.123 467.731 492.34 467.77C494 468.19 516.62 471.85 516.62 471.85C516.62 471.85 569.05 468.26 582.12 485.92C583.188 487.209 584.002 488.688 584.52 490.28V490.28Z" fill="black"/>
<path d="M602.76 432.02C602.76 432.02 605.34 450.23 605.52 451.71C605.7 453.19 606.63 471.02 605.52 473.05C604.41 475.08 602.76 478.38 602.76 478.38C602.76 478.38 604.6 482.24 597.24 483.72C589.88 485.2 581.24 489.6 581.24 489.6C581.24 489.6 562.47 489.05 551.99 485.19C541.51 481.33 528.63 482.06 528.63 482.06C528.63 482.06 472.88 472.49 496.8 460.81C520.72 449.13 537.64 464.95 537.64 464.95L564.31 463.3C564.31 463.3 574.25 457.22 577.01 457.78C578.959 458.028 580.938 457.709 582.71 456.86L582.9 437.54L602.76 432.02Z" fill="#FBBEBE"/>
<path opacity="0.1" d="M467.52 387.32L462.18 387.04L446 450.04C446 450.04 463.47 445.62 471 450.04C478.53 454.46 492.34 455.37 492.34 455.37L487.19 405.15L467.52 387.32Z" fill="black"/>
<path d="M467.52 386.21L462.18 385.93L446 448.93C446 448.93 463.47 444.51 471 448.93C478.53 453.35 492.34 454.26 492.34 454.26L487.19 404.04L467.52 386.21Z" fill="#0060A9"/>
<path opacity="0.1" d="M589.89 400.01L597.24 401.67C597.24 401.67 616.01 428.67 617.48 430.18C618.95 431.69 610.48 437.18 606.99 437.18C603.5 437.18 586.39 439.18 581.42 443.8C576.45 448.42 578.52 425.17 578.52 424.64C578.52 424.11 584.69 409.44 584.69 409.44L589.89 400.01Z" fill="black"/>
<path d="M589.89 398.91L597.24 400.56C597.24 400.56 616.01 427.61 617.48 429.08C618.95 430.55 610.48 436.08 606.99 436.08C603.5 436.08 586.39 438.08 581.42 442.7C576.45 447.32 578.52 424.07 578.52 423.54C578.52 423.01 584.73 408.29 584.73 408.29L589.89 398.91Z" fill="#0060A9"/>
<g opacity="0.1">
<path d="M540.41 295.87C540.367 295.103 540.383 294.334 540.46 293.57C538.937 295.855 537.89 298.422 537.38 301.12V303.44C537.38 303.44 537.38 303.39 537.38 303.36V303.91C537.38 305.53 537.38 307.16 537.33 308.78H537.19V309.53C537.19 309.27 537.19 309.02 537.14 308.76C535.14 308.44 533.71 306.76 532.22 305.42C530.73 304.08 528.4 302.8 526.58 303.83C525.708 304.421 525.016 305.241 524.58 306.2L521.61 311.44C521.597 310.889 521.466 310.346 521.226 309.85C520.987 309.353 520.644 308.913 520.22 308.56C517.511 309.745 515.216 311.709 513.626 314.202C512.036 316.695 511.223 319.604 511.29 322.56C508.558 320.848 506.272 318.511 504.622 315.741C502.972 312.971 502.005 309.848 501.8 306.63C501.626 310.223 502.414 313.797 504.082 316.984C505.75 320.171 508.238 322.855 511.29 324.76C511.225 321.805 512.039 318.896 513.629 316.404C515.219 313.912 517.513 311.947 520.22 310.76C520.643 311.116 520.985 311.558 521.225 312.056C521.465 312.554 521.596 313.097 521.61 313.65L524.55 308.41C524.986 307.451 525.678 306.631 526.55 306.04C528.37 305.04 530.64 306.22 532.19 307.63C533.74 309.04 535.25 310.79 537.33 311.02C537.33 308.46 537.357 305.907 537.41 303.36C537.901 300.688 538.921 298.142 540.41 295.87V295.87Z" fill="black"/>
<path d="M537.03 305.94C537.08 305.26 537.16 304.58 537.26 303.94L537.37 301.18C537.069 302.748 536.955 304.345 537.03 305.94Z" fill="black"/>
<path d="M567.37 317.87C564.64 319.33 561.16 318.11 558.84 316.07C556.52 314.03 554.95 311.28 552.9 308.96C552.748 309.38 552.727 309.836 552.84 310.268C552.952 310.7 553.193 311.087 553.53 311.38C553.33 311.38 553.14 311.28 552.95 311.23C554.95 313.53 556.54 316.23 558.84 318.23C561.14 320.23 564.64 321.49 567.37 320.03C570.1 318.57 570.88 315.15 570.64 311.82C570.46 314.44 569.52 316.71 567.37 317.87Z" fill="black"/>
<path d="M552.89 311.21C549.546 310.299 546.56 308.387 544.333 305.731C542.106 303.075 540.744 299.802 540.43 296.35C539.86 304.2 545.78 312.07 553.53 313.58C553.2 313.293 552.963 312.915 552.849 312.493C552.735 312.07 552.749 311.624 552.89 311.21V311.21Z" fill="black"/>
</g>
<path d="M893.62 550.09L891.46 559.29C891.46 559.29 874.16 550.44 871.05 539.24C867.94 528.04 876.26 523.77 876.26 523.77L892.39 530.59L893.62 550.09Z" fill="white"/>
<path opacity="0.1" d="M893.62 550.09L891.46 559.29C891.46 559.29 874.16 550.44 871.05 539.24C867.94 528.04 876.26 523.77 876.26 523.77L892.39 530.59L893.62 550.09Z" fill="black"/>
<path d="M796.53 863.2C796.53 863.2 780.53 869.08 769.53 869.82C763.69 870.21 760.62 866.63 759.04 863.18C758.181 861.277 757.621 859.253 757.38 857.18L758.83 841.33L759.59 832.9L782.96 826.82L786.27 836.95L786.58 837.71C787.9 841.1 793.24 854.84 793.08 857.71C793.067 858.452 793.205 859.189 793.485 859.877C793.765 860.565 794.182 861.188 794.71 861.71C795.251 862.282 795.863 862.782 796.53 863.2V863.2Z" fill="#363636"/>
<path d="M905.77 855.14C905.811 855.625 905.764 856.113 905.63 856.58C905.63 856.58 871.41 862.28 864.41 856.58C862.442 854.915 860.149 853.679 857.676 852.95C855.204 852.222 852.606 852.017 850.05 852.35C850.05 852.35 836.81 852.71 834.6 848.35C833.68 846.52 833.92 842.97 834.49 839.48C835.072 836.197 835.847 832.952 836.81 829.76L837.34 829.34L840.49 826.81L877.37 825.72H877.65C877.47 833.26 890.16 841.91 890.16 841.91C903.67 846.91 905.66 852.56 905.77 855.14Z" fill="#363636"/>
<path opacity="0.1" d="M905.78 855.14C905.815 855.625 905.765 856.113 905.63 856.58C905.63 856.58 871.41 862.28 864.42 856.58C862.451 854.914 860.156 853.677 857.681 852.948C855.207 852.22 852.608 852.016 850.05 852.35C850.05 852.35 836.8 852.71 834.59 848.35C833.68 846.52 833.91 842.97 834.48 839.47C839.58 839.98 847.63 841.25 850.79 844.29C855.57 848.89 863.67 853.49 868.63 853.86C872.55 854.1 895.86 854.84 905.78 855.14Z" fill="black"/>
<path opacity="0.1" d="M857.53 863.2C857.53 863.2 841.53 869.08 830.53 869.82C824.69 870.21 821.62 866.63 820.04 863.18C824.12 864.55 829.77 865.98 832.74 864.67C836.26 863.1 848.74 862.1 855.74 861.67C856.268 862.255 856.87 862.77 857.53 863.2V863.2Z" fill="black"/>
<path d="M820.27 389.31C807.07 384.18 790.09 367.23 794.33 359.31C795.267 357.31 795.826 355.154 795.98 352.95C796.253 349.958 796.293 346.949 796.1 343.95C795.802 339.036 795.211 334.144 794.33 329.3C794.33 329.3 835.54 330.23 833.14 336.3C832.44 338.09 832.32 341.18 832.52 344.63C832.72 348.08 833.21 352.01 833.73 355.32C834.44 359.85 835.17 363.32 835.17 363.32C835.17 363.32 832.64 366.85 831.17 367.04C829.7 367.23 839.21 396.66 820.27 389.31Z" fill="#CF6F80"/>
<path opacity="0.1" d="M786.54 837.66L786.23 838C773.91 823.1 759.01 841.68 759.01 841.68L758.79 841.28L759.55 832.85L782.92 826.77L786.23 836.9L786.54 837.66Z" fill="black"/>
<path opacity="0.1" d="M877.67 826.77C877.67 826.77 868.67 826.59 863.87 830.83C859.07 835.07 835.87 831.74 836.87 830.83C837.162 830.368 837.34 829.844 837.39 829.3L840.54 826.77L877.42 825.68C877.56 826.38 877.67 826.77 877.67 826.77Z" fill="black"/>
<path d="M801.87 709.76C801.201 711.418 800.692 713.135 800.35 714.89C799.516 719.696 799.284 724.587 799.66 729.45C800.03 736.45 799.66 783.36 799.66 783.36C799.66 783.36 791.75 795.87 787.33 800.28C782.91 804.69 796.33 812.61 796.33 812.61C798.33 824.02 786.21 836.9 786.21 836.9C773.89 822 758.99 840.57 758.99 840.57C758.99 840.57 750.89 826.57 748.87 821.57C746.85 816.57 756.78 813.12 760.27 811.08C763.76 809.04 760.09 797.08 760.09 797.08C760.09 797.08 757.15 786.59 753.65 777.02C750.15 767.45 757.51 719.82 757.51 719.82C757.51 719.82 757.89 711.35 758.8 708.4C759.254 706.271 759.345 704.08 759.07 701.92C759.01 701.19 758.94 700.59 758.89 700.17C758.84 699.75 758.8 699.57 758.8 699.57L758.94 699.33L763.94 690.01C763.94 690.01 804.27 703.89 801.87 709.76Z" fill="#0060A9"/>
<path d="M877.67 825.67C877.67 825.67 868.67 825.48 863.87 829.67C859.07 833.86 835.87 830.59 836.87 829.67C837.87 828.75 837.78 821.95 837.78 821.95C824.17 803.36 835.78 795.82 835.78 795.82C835.78 795.82 829.71 766.57 828.61 755.72C827.84 748.15 826.89 727.72 826.38 716.15C826.16 711.15 826.03 707.7 826.03 707.7L837.05 705.51L838.48 705.23L865.3 699.84C865.3 699.84 866.04 704.84 866.54 708.93C866.793 710.676 866.93 712.436 866.95 714.2C866.78 716.2 866.95 722.47 866.95 722.47L867.87 741.23C867.276 743.199 866.966 745.243 866.95 747.3C867.14 749.7 870.63 783.91 870.63 783.91C870.63 783.91 876.7 804.33 874.63 805.8C872.56 807.27 877.67 825.67 877.67 825.67Z" fill="#0060A9"/>
<path opacity="0.1" d="M833.14 336.33C832.44 338.12 832.32 341.21 832.52 344.66C827 347.984 820.655 349.683 814.212 349.563C807.77 349.443 801.492 347.508 796.1 343.98C795.802 339.066 795.211 334.174 794.33 329.33C794.33 329.33 835.54 330.26 833.14 336.33Z" fill="black"/>
<path d="M849.05 314.25C849.159 323.323 845.659 332.068 839.32 338.56C832.981 345.053 824.323 348.761 815.25 348.87C806.177 348.979 797.432 345.479 790.94 339.14C784.447 332.801 780.739 324.143 780.63 315.07C780.63 314.79 780.63 314.53 780.63 314.25C780.63 305.174 784.235 296.47 790.653 290.053C797.07 283.635 805.774 280.03 814.85 280.03C823.926 280.03 832.63 283.635 839.047 290.053C845.465 296.47 849.07 305.174 849.07 314.25H849.05Z" fill="#CF6F80"/>
<path opacity="0.1" d="M820.27 389.31C807.07 384.18 790.09 367.23 794.33 359.31C795.267 357.31 795.826 355.154 795.98 352.95L814.05 367.81L825.23 376.98L833.73 355.35C834.44 359.88 835.17 363.35 835.17 363.35C835.17 363.35 832.64 366.88 831.17 367.07C829.7 367.26 839.21 396.66 820.27 389.31Z" fill="black"/>
<path d="M867 454.98L851.91 708.48L832.23 709.77L781.26 562.78L789.62 388.27L791.39 351.4L814.05 370.01L825.23 379.18L833.98 356.91L850.25 371.09L867 454.98Z" fill="#0060A9"/>
<path opacity="0.1" d="M801.87 709.76C801.201 711.418 800.692 713.135 800.35 714.89C786.016 712.683 772.094 708.338 759.05 702L758.78 701.86L758.87 700.25V699.41L763.87 690.09C763.87 690.09 804.27 703.89 801.87 709.76Z" fill="black"/>
<path opacity="0.1" d="M837.38 714.93C833.719 715.556 830.027 715.98 826.32 716.2C826.1 711.2 825.97 707.75 825.97 707.75L837.05 705.51L837.38 714.93Z" fill="black"/>
<path opacity="0.1" d="M866.58 708.93C859.47 710.78 848.48 712.86 838.66 711.56L838.52 705.23L865.34 699.84C865.34 699.84 866.05 704.8 866.58 708.93Z" fill="black"/>
<path opacity="0.1" d="M838.48 712.72C797.48 719.72 759.93 699.65 759.93 699.65L760.29 692.85C760.29 692.85 761.22 615.76 758.64 609.85C756.06 603.94 754.05 574.01 755.51 569.44C756.97 564.87 750.18 495.87 750.18 495.87L749.08 467.87L708.79 451.5L726.79 413.97C729.221 408.709 731.312 403.298 733.05 397.77C736.18 388.02 750.71 378.45 750.71 378.45C750.71 378.45 765.61 368.89 771.5 369.25C777.39 369.61 785.11 360.79 785.11 360.79C790.81 346.26 795.97 352.79 795.97 352.79C795.97 353.49 795.97 352.79 795.69 354.94C793.69 370.89 828.03 421.29 828.52 422.19L831.83 501.85L835.14 602.66L838.48 712.72Z" fill="black"/>
<path d="M837.38 712.72C796.38 719.72 758.82 699.65 758.82 699.65L759.19 692.85C759.19 692.85 760.11 615.76 757.53 609.85C754.95 603.94 752.94 573.98 754.41 569.37C755.88 564.76 749.05 495.83 749.05 495.83L747.94 467.83L707.66 451.46L725.66 413.93C728.085 408.67 730.176 403.263 731.92 397.74C735.05 388.02 749.63 378.44 749.63 378.44C749.63 378.44 764.53 368.88 770.41 369.24C776.29 369.6 784.05 360.79 784.05 360.79C789.76 346.26 796.05 352.79 796.05 352.79C796.05 353.49 795.45 353.79 795.77 354.94C800.17 370.41 827.01 421.29 827.5 422.19L830.81 501.85L834.05 602.71L837.38 712.72Z" fill="white"/>
<path opacity="0.1" d="M826.33 424.44C821.92 422.6 798.56 395.93 798.56 395.93V389.86C797.71 387.86 792.65 389.08 788.56 390.48L790.32 353.61L792.32 355.27C796.69 370.73 825.85 423.55 826.33 424.44Z" fill="black"/>
<path d="M827.44 422.24C823.02 420.39 799.66 393.73 799.66 393.73V387.65C798.81 385.65 793.76 386.87 789.66 388.27L791.39 351.44L793.39 353.09C797.8 368.53 826.95 421.34 827.44 422.24Z" fill="white"/>
<path opacity="0.1" d="M759.93 555.24C760.48 555.24 788.44 552.3 788.44 552.3C788.44 552.3 805.37 585.6 804.26 593.69C803.15 601.78 801.14 608.96 794.33 607.69C787.52 606.42 757.68 608.69 757.68 608.69L759.93 555.24Z" fill="black"/>
<path d="M758.82 553.03C759.38 553.03 787.34 550.09 787.34 550.09C787.34 550.09 804.26 583.44 803.16 591.44C802.06 599.44 800.03 606.71 793.23 605.44C786.43 604.17 756.57 606.44 756.57 606.44L758.82 553.03Z" fill="white"/>
<path d="M779.89 537.44C779.89 537.44 805.55 551.24 806.1 555.44C806.65 559.64 793.04 553.6 790.1 552.86C788.164 552.4 786.194 552.093 784.21 551.94L764.6 552.47L779.89 537.44Z" fill="#CF6F80"/>
<path opacity="0.1" d="M819.16 426.16C820.651 426.16 821.86 424.951 821.86 423.46C821.86 421.969 820.651 420.76 819.16 420.76C817.669 420.76 816.46 421.969 816.46 423.46C816.46 424.951 817.669 426.16 819.16 426.16Z" fill="black"/>
<path d="M819.16 425.06C820.651 425.06 821.86 423.851 821.86 422.36C821.86 420.869 820.651 419.66 819.16 419.66C817.669 419.66 816.46 420.869 816.46 422.36C816.46 423.851 817.669 425.06 819.16 425.06Z" fill="#3F3D56"/>
<path opacity="0.1" d="M824.13 543.04C825.621 543.04 826.83 541.831 826.83 540.34C826.83 538.849 825.621 537.64 824.13 537.64C822.639 537.64 821.43 538.849 821.43 540.34C821.43 541.831 822.639 543.04 824.13 543.04Z" fill="black"/>
<path d="M824.13 541.93C825.621 541.93 826.83 540.721 826.83 539.23C826.83 537.739 825.621 536.53 824.13 536.53C822.639 536.53 821.43 537.739 821.43 539.23C821.43 540.721 822.639 541.93 824.13 541.93Z" fill="#3F3D56"/>
<path opacity="0.1" d="M821.86 484.6C823.351 484.6 824.56 483.391 824.56 481.9C824.56 480.409 823.351 479.2 821.86 479.2C820.369 479.2 819.16 480.409 819.16 481.9C819.16 483.391 820.369 484.6 821.86 484.6Z" fill="black"/>
<path d="M821.86 483.5C823.351 483.5 824.56 482.291 824.56 480.8C824.56 479.309 823.351 478.1 821.86 478.1C820.369 478.1 819.16 479.309 819.16 480.8C819.16 482.291 820.369 483.5 821.86 483.5Z" fill="#3F3D56"/>
<path d="M884.1 551.38C884.1 551.38 885.94 554.14 884.1 555.38C882.26 556.62 884.28 559.8 884.28 559.8C884.28 559.8 879.69 562.48 881.71 564.91C883.73 567.34 882.45 578.25 882.45 578.25L876.93 587.44C876.93 587.44 877.26 593.33 877.28 601.29C877.28 613.71 876.55 631.17 872.51 639.13L873.05 704.44C873.05 704.44 853.72 711.51 837.54 709.35L835.14 604.55C835.14 604.55 838.64 545.12 839.93 533.72C840.685 527.802 840.993 521.835 840.85 515.87C840.85 515.87 840.3 498.03 838.45 489.76C838.45 489.76 836.45 453.88 836.25 443.95C836.16 439.2 836.41 425.34 836.69 412.16C837 397.75 837.35 384.16 837.35 384.16L833.7 355.27C833.7 355.27 837.35 354.91 838.45 356.37C838.943 356.83 839.479 357.242 840.05 357.6C846.36 361.86 868.62 374.96 868.62 374.96C868.62 374.96 880.94 379.86 883.89 386.88C886.84 393.9 888.89 398.88 890.32 400.88C891.75 402.88 892.53 412.28 892.53 412.28C892.53 412.28 896.77 429.58 900.08 432.51C903.39 435.44 905.77 454.04 905.77 454.04L876.52 477.04C876.52 477.04 873.95 515.3 873.4 516.78C872.85 518.26 884.1 551.38 884.1 551.38Z" fill="white"/>
<path d="M885.21 551.38C885.21 551.38 887.04 554.14 885.21 555.38C883.38 556.62 885.38 559.8 885.38 559.8C885.38 559.8 880.79 562.48 882.81 564.91C884.83 567.34 883.55 578.25 883.55 578.25L878.05 587.44C878.05 587.44 878.38 593.33 878.41 601.29C878.41 613.71 877.68 631.17 873.64 639.13L874.19 704.44C874.19 704.44 854.86 711.51 838.68 709.35L836.29 604.55C836.29 604.55 839.78 545.12 841.08 533.72C841.836 527.802 842.14 521.834 841.99 515.87C841.99 515.87 841.44 498.03 839.6 489.76C839.6 489.76 837.6 453.88 837.39 443.95C837.3 439.2 837.55 425.34 837.83 412.16C838.14 397.75 838.49 384.16 838.49 384.16L833.67 354.88C833.67 354.88 838.49 354.88 839.6 356.37C840.088 356.836 840.624 357.248 841.2 357.6V357.6C847.5 361.86 869.76 374.96 869.76 374.96C869.76 374.96 882.05 379.86 885.05 386.88C888.05 393.9 890.05 398.88 891.48 400.88C892.91 402.88 893.69 412.28 893.69 412.28C893.69 412.28 897.93 429.58 901.24 432.51C904.55 435.44 906.94 454.04 906.94 454.04L877.69 477.04C877.69 477.04 875.12 515.3 874.56 516.78C874 518.26 885.21 551.38 885.21 551.38Z" fill="white"/>
<path opacity="0.1" d="M850.18 392.65L852.83 400.35L838.92 414.35C839.23 399.94 839.58 386.35 839.58 386.35L834.76 357.08C834.76 357.08 839.58 357.08 840.69 358.57C841.178 359.036 841.714 359.448 842.29 359.8V359.8L854.11 393.89L850.18 392.65Z" fill="black"/>
<path d="M849.05 390.44L851.7 398.13L837.8 412.13C838.1 397.72 838.46 384.13 838.46 384.13L833.63 354.85C833.63 354.85 838.46 354.85 839.56 356.34C840.05 356.803 840.586 357.215 841.16 357.57V357.57L853.05 391.69L849.05 390.44Z" fill="white"/>
<path opacity="0.1" d="M849.05 314.25C849.054 317.853 848.487 321.434 847.37 324.86C847.182 324.891 846.989 324.885 846.803 324.84C846.618 324.795 846.443 324.714 846.29 324.6C846.02 315.6 841.6 307.14 836.15 299.95C834.617 297.781 832.762 295.859 830.65 294.25C828.511 292.645 825.852 291.893 823.19 292.14C820.19 292.55 817.54 294.59 814.51 294.85C810.51 295.18 806.93 292.41 802.96 292.28C801.346 292.293 799.753 292.652 798.289 293.331C796.824 294.011 795.522 294.996 794.47 296.22C792.382 298.682 790.832 301.554 789.92 304.65C788.348 309.348 787.491 314.257 787.38 319.21C787.33 322.01 787.06 325.52 784.46 326.54C784.657 324.482 784.423 322.406 783.774 320.443C783.125 318.481 782.075 316.675 780.69 315.14L780.63 315.07C780.63 314.79 780.63 314.53 780.63 314.25C780.63 305.174 784.235 296.47 790.653 290.053C797.07 283.635 805.774 280.03 814.85 280.03C823.926 280.03 832.63 283.635 839.047 290.053C845.465 296.47 849.07 305.174 849.07 314.25H849.05Z" fill="black"/>
<path d="M829.05 259.92C823.854 257.476 817.944 257.013 812.43 258.62C809.66 259.44 807.05 260.77 804.24 261.44C798.24 262.89 791.24 261.32 786.09 264.83C783.23 266.83 781.51 269.99 779.91 273.07L775.91 280.68C773.73 284.85 771.53 289.09 770.62 293.68C769.71 298.27 770.26 303.41 773.17 307.11C775.28 309.79 778.42 311.48 780.72 314.01C782.102 315.552 783.149 317.364 783.797 319.331C784.444 321.299 784.676 323.378 784.48 325.44C787.08 324.44 787.34 320.91 787.4 318.11C787.513 313.157 788.369 308.249 789.94 303.55C790.853 300.454 792.403 297.582 794.49 295.12C795.542 293.895 796.844 292.908 798.308 292.227C799.772 291.546 801.365 291.185 802.98 291.17C806.98 291.31 810.57 294.08 814.53 293.74C817.53 293.49 820.19 291.45 823.21 291.04C825.873 290.788 828.534 291.541 830.67 293.15C832.784 294.754 834.636 296.677 836.16 298.85C841.62 306.05 846.05 314.47 846.31 323.5C847.44 324.32 849.07 323.24 849.63 321.96C850.19 320.68 850.21 319.18 850.92 317.96C851.74 316.55 853.31 315.79 854.54 314.73C857.66 312.04 858.44 307.51 858.32 303.4C858.2 299.29 857.4 295.12 858.18 291.08C858.65 288.61 859.71 286.28 860.29 283.83C860.87 281.38 860.94 278.63 859.57 276.52C857.57 273.43 853.36 272.81 849.69 272.52C845.52 272.16 841.79 272.62 839.13 269.11C837.878 267.281 836.473 265.561 834.93 263.97C834.38 263.44 829.05 260.14 829.05 259.92Z" fill="#512E4E"/>
<path opacity="0.1" d="M720.33 470.8L709.89 451.49L706.58 481.29C706.58 481.29 708.42 494.53 708.05 496.56C707.68 498.59 715.59 516.79 715.59 516.79C715.59 516.79 741.72 563.34 752.39 565.73L788.39 539.97L778.83 527.83C778.83 527.83 775.52 526.54 774.69 527.83C774.69 527.83 756.93 497.29 755.1 495.09C753.27 492.89 753.62 488.46 753.62 488.46C753.62 488.46 750.86 485.52 751.78 482.76C752.7 480 746.5 470.44 746.5 470.44L752.2 465.11L720.33 470.8Z" fill="black"/>
<path d="M710.44 449.28L707.68 451.49L704.37 481.29C704.37 481.29 706.21 494.53 705.84 496.56C705.47 498.59 713.39 516.79 713.39 516.79C713.39 516.79 739.51 563.34 750.18 565.73L786.24 539.97L776.67 527.83C776.67 527.83 773.36 526.54 772.53 527.83C772.53 527.83 754.78 497.29 752.94 495.09C751.1 492.89 751.47 488.46 751.47 488.46C751.47 488.46 748.71 485.52 749.63 482.76C750.55 480 744.29 470.44 744.29 470.44L749.99 465.11L710.44 449.28Z" fill="white"/>
<path opacity="0.1" d="M881.71 566.06C883.71 568.49 882.45 579.41 882.45 579.41L876.93 588.54C876.93 588.54 877.26 594.44 877.28 602.4L868 605.3C867.16 605.562 866.27 605.619 865.403 605.467C864.536 605.315 863.719 604.958 863.018 604.425C862.317 603.893 861.754 603.201 861.375 602.407C860.996 601.613 860.813 600.739 860.84 599.86L862.45 548.26L884.1 556.53C882.26 557.81 884.28 560.95 884.28 560.95C884.28 560.95 879.69 563.63 881.71 566.06Z" fill="black"/>
<path d="M882.81 564.96C884.81 567.38 883.55 578.3 883.55 578.3L878.05 587.44C878.05 587.44 878.38 593.33 878.41 601.29L868.96 604.24C868.139 604.497 867.269 604.554 866.422 604.407C865.575 604.259 864.775 603.911 864.09 603.391C863.405 602.871 862.854 602.195 862.483 601.419C862.113 600.643 861.933 599.79 861.96 598.93L863.57 547.15L885.21 555.44C883.36 556.72 885.38 559.86 885.38 559.86C885.38 559.86 880.79 562.53 882.81 564.96Z" fill="white"/>
<path d="M889.99 540.34C889.99 540.34 888.52 549.73 884.84 550.28C881.16 550.83 879.51 565.47 875.84 564.96C872.17 564.45 874.6 551.34 874.73 548.8C874.86 546.26 870.73 535.74 873.81 533.35C876.89 530.96 886.69 533.35 886.69 533.35L889.99 540.34Z" fill="#CF6F80"/>
<path opacity="0.1" d="M897.77 468.04L904.7 454.04C904.7 454.04 907.47 464.71 907.47 470.41C907.47 476.11 911.33 476.67 911.33 476.67C911.33 476.67 915.56 481.67 913.33 485.32C911.1 488.97 910.21 498.01 910.21 498.01C910.21 498.01 910.94 515.3 907.63 517.69C904.32 520.08 903.58 525.79 903.58 525.79C903.58 525.79 897.51 536.64 897.7 539.22C897.89 541.8 889.24 559.27 889.24 559.27C889.24 559.27 893.47 537.56 868.82 528.18C868.82 528.18 868.63 520.82 870.47 518.8C872.31 516.78 875.18 515.8 873.38 505.64C871.58 495.48 872.86 483.23 872.86 480.78C872.86 478.33 878.38 463.06 878.38 463.06L897.77 468.04Z" fill="black"/>
<path d="M900.85 452.04L906.91 454.04C906.91 454.04 909.68 464.71 909.68 470.41C909.68 476.11 913.54 476.67 913.54 476.67C913.54 476.67 917.77 481.67 915.54 485.32C913.31 488.97 912.41 498.01 912.41 498.01C912.41 498.01 913.15 515.3 909.84 517.69C906.53 520.08 905.84 525.79 905.84 525.79C905.84 525.79 899.77 536.64 899.96 539.22C900.15 541.8 891.49 559.27 891.49 559.27C891.49 559.27 895.72 537.56 871.07 528.18C871.07 528.18 870.89 520.82 872.73 518.8C874.57 516.78 877.44 515.8 875.64 505.64C873.84 495.48 875.12 483.23 875.12 480.78C875.12 478.33 880.64 463.06 880.64 463.06L900.85 452.04Z" fill="white"/>
<path opacity="0.1" d="M766.97 814.91C766.97 814.91 776.63 808.84 782.97 813.25C789.31 817.66 766.97 814.91 766.97 814.91Z" fill="black"/>
<path opacity="0.1" d="M842.05 796.14C842.05 796.14 850.6 795.04 857.78 802.77C864.96 810.5 842.05 796.14 842.05 796.14Z" fill="black"/>
<g opacity="0.1">
<path d="M854.54 312.53C853.31 313.6 851.73 314.35 850.91 315.76C850.21 316.97 850.19 318.47 849.63 319.76C849.07 321.05 847.44 322.12 846.3 321.3C846.04 312.3 841.61 303.85 836.16 296.65C834.636 294.48 832.784 292.561 830.67 290.96C828.531 289.347 825.867 288.591 823.2 288.84C820.2 289.25 817.56 291.29 814.53 291.55C810.53 291.88 806.94 289.11 802.97 288.98C801.357 288.992 799.765 289.35 798.302 290.03C796.84 290.71 795.54 291.695 794.49 292.92C792.402 295.382 790.853 298.254 789.94 301.35C788.369 306.049 787.512 310.957 787.4 315.91C787.34 318.7 787.08 322.18 784.5 323.22C784.56 323.962 784.56 324.708 784.5 325.45C787.11 324.45 787.37 320.92 787.43 318.12C787.542 313.167 788.399 308.259 789.97 303.56C790.883 300.464 792.432 297.592 794.52 295.13C795.57 293.905 796.87 292.919 798.333 292.238C799.795 291.557 801.387 291.196 803 291.18C807 291.32 810.6 294.09 814.56 293.75C817.56 293.5 820.22 291.46 823.23 291.05C825.896 290.798 828.56 291.551 830.7 293.16C832.814 294.764 834.666 296.687 836.19 298.86C841.64 306.06 846.07 314.48 846.33 323.51C847.47 324.33 849.1 323.25 849.66 321.97C850.22 320.69 850.24 319.19 850.94 317.97C851.76 316.56 853.34 315.8 854.57 314.74C857.69 312.05 858.47 307.52 858.35 303.41C858.35 303.28 858.35 303.16 858.35 303.03C858.15 306.61 857.2 310.24 854.54 312.53Z" fill="black"/>
<path d="M780.71 311.83C778.42 309.3 775.28 307.6 773.17 304.92C771.388 302.554 770.373 299.7 770.26 296.74C769.946 300.441 770.98 304.131 773.17 307.13C775.28 309.81 778.42 311.5 780.71 314.03C782.922 316.503 784.251 319.64 784.49 322.95C784.641 320.938 784.383 318.915 783.734 317.005C783.084 315.094 782.056 313.334 780.71 311.83Z" fill="black"/>
<path d="M860.29 281.63C859.7 284.08 858.65 286.41 858.17 288.88C857.882 290.55 857.778 292.247 857.86 293.94C857.893 292.984 857.997 292.031 858.17 291.09C858.65 288.62 859.7 286.29 860.29 283.84C860.629 282.488 860.741 281.089 860.62 279.7C860.556 280.35 860.445 280.995 860.29 281.63V281.63Z" fill="black"/>
</g>
<path d="M217.818 855.96C285.297 855.96 340 847.174 340 836.336C340 825.498 285.297 816.712 217.818 816.712C150.339 816.712 95.6362 825.498 95.6362 836.336C95.6362 847.174 150.339 855.96 217.818 855.96Z" fill="#E0EEFB"/>
<path d="M221.756 460.399H213.894V637.414H221.756V460.399Z" fill="#535461"/>
<path d="M271.173 636.888L270.671 644.863L269.981 656.148L269.693 660.838L268.991 672.123L268.69 676.813L268 688.098L260.063 816.085C259.724 821.592 257.298 826.762 253.279 830.542C249.26 834.321 243.95 836.425 238.433 836.424H197.216C191.684 836.426 186.361 834.312 182.339 830.513C178.316 826.715 175.9 821.521 175.586 815.998L167.649 688.01L166.959 676.725L166.671 672.035L165.956 660.75L165.668 656.06L164.978 644.775L164.477 636.8C164.39 635.271 164.615 633.741 165.138 632.302C165.662 630.863 166.473 629.546 167.521 628.431C168.57 627.315 169.835 626.425 171.238 625.813C172.642 625.202 174.156 624.883 175.687 624.875H259.975C261.513 624.884 263.033 625.207 264.441 625.824C265.85 626.442 267.117 627.34 268.166 628.465C269.214 629.59 270.022 630.918 270.539 632.366C271.056 633.814 271.272 635.353 271.173 636.888V636.888Z" fill="#3F3D56"/>
<path d="M270.671 644.85L269.969 656.11H165.668L164.965 644.85H270.671Z" fill="#9D9CB5"/>
<path d="M269.68 660.8L268.991 672.06H166.658L165.956 660.8H269.68Z" fill="#9D9CB5"/>
<path d="M268.69 676.762L268 688.01H167.649L166.947 676.762H268.69Z" fill="#9D9CB5"/>
<path d="M153.016 526.756C198.809 559.885 217.881 611.697 217.881 611.697C217.881 611.697 162.709 609.803 116.903 576.675C71.0972 543.546 52 491.772 52 491.772C52 491.772 107.172 493.627 153.016 526.756Z" fill="#0060A9"/>
<path d="M52 491.772C52 491.772 109.267 523.559 127.636 549.878C146.006 576.198 217.831 611.722 217.831 611.722" stroke="#535461" stroke-width="2" stroke-miterlimit="10"/>
<path d="M182.52 460.022C207.448 478.041 217.831 506.242 217.831 506.242C217.831 506.242 187.737 505.214 162.871 487.195C138.006 469.176 127.561 440.963 127.561 440.963C127.561 440.963 157.605 441.991 182.52 460.022Z" fill="#0060A9"/>
<path d="M127.561 440.963C127.561 440.963 158.733 458.267 168.74 472.587C178.746 486.906 217.831 506.242 217.831 506.242" stroke="#535461" stroke-width="2" stroke-miterlimit="10"/>
<path d="M254.044 504.812C225.417 536.273 219.36 577.389 219.36 577.389C219.36 577.389 259.724 567.483 288.326 536.01C316.928 504.537 323.009 463.433 323.009 463.433C323.009 463.433 282.671 473.352 254.044 504.812Z" fill="#0060A9"/>
<path d="M323.034 463.446C323.034 463.446 285.743 495.696 276.263 517.916C266.784 540.135 219.36 577.389 219.36 577.389" stroke="#535461" stroke-width="2" stroke-miterlimit="10"/>
</svg>
